<svg width="105" height="105" viewBox="0 0 42 42" fill="none" xmlns="http://www.w3.org/2000/svg">
<g clip-path="url(#clip0_441_2511)">
<path fill-rule="evenodd" clip-rule="evenodd" d="M4.94116 26.8412L14.1442 31.8766C15.9361 32.8571 18.2275 32.2753 19.2621 30.577C20.2967 28.8788 19.6827 26.7072 17.8908 25.7268L11.9397 22.4706L6.55211 26.046C6.04183 26.3847 5.50007 26.6489 4.94116 26.8412Z" fill="#F0402C"/>
<path fill-rule="evenodd" clip-rule="evenodd" d="M1.49759 18.1388L13.0033 9.55917C14.5919 8.37457 16.7815 8.78559 17.894 10.4772C18.1721 10.9001 18.3565 11.363 18.452 11.838C18.6104 12.6266 18.5235 13.4484 18.2123 14.1758C17.9611 14.7628 17.5639 15.2883 17.0318 15.685L5.52614 24.2647C3.93754 25.4493 1.7479 25.0382 0.635448 23.3466C0.205788 22.6933 -0.000346293 21.9444 4.36669e-07 21.2031C0.000563434 20.025 0.522561 18.8659 1.49759 18.1388Z" fill="#F0402C"/>
<path fill-rule="evenodd" clip-rule="evenodd" d="M4.94116 26.8412L14.1442 31.8766C15.9361 32.8571 18.2275 32.2753 19.2621 30.577C20.2967 28.8788 19.6827 26.7072 17.8908 25.7268L11.9397 22.4706L6.55211 26.046C6.04183 26.3847 5.50007 26.6489 4.94116 26.8412Z" fill="url(#paint0_linear_441_2511)"/>
<path fill-rule="evenodd" clip-rule="evenodd" d="M37.0586 14.3941L27.8556 9.35864C26.0636 8.37816 23.7722 8.96002 22.7376 10.6583C21.703 12.3565 22.317 14.5281 24.109 15.5085L30.0601 18.7647L35.4476 15.1893C35.9579 14.8506 36.4997 14.5864 37.0586 14.3941Z" fill="#F0402C"/>
<path fill-rule="evenodd" clip-rule="evenodd" d="M37.0586 14.3941L27.8556 9.35864C26.0636 8.37816 23.7722 8.96002 22.7376 10.6583C21.703 12.3565 22.317 14.5281 24.109 15.5085L30.0601 18.7647L35.4476 15.1893C35.9579 14.8506 36.4997 14.5864 37.0586 14.3941Z" fill="url(#paint1_linear_441_2511)"/>
<path fill-rule="evenodd" clip-rule="evenodd" d="M40.5024 23.8087L28.9967 31.7284C27.4081 32.8218 25.2185 32.4424 24.106 30.8809C23.8279 30.4905 23.6435 30.0632 23.548 29.6248C23.3896 28.8969 23.4765 28.1383 23.7877 27.4669C24.0389 26.925 24.4361 26.44 24.9682 26.0737L36.4739 18.154C38.0625 17.0606 40.2521 17.44 41.3646 19.0015C41.7942 19.6046 42.0003 20.2958 42 20.9801C41.9994 22.0676 41.4774 23.1376 40.5024 23.8087Z" fill="#F0402C"/>
</g>
<defs>
<linearGradient id="paint0_linear_441_2511" x1="9.26469" y1="24.3236" x2="17.9118" y2="31.7354" gradientUnits="userSpaceOnUse">
<stop stop-color="#020617" stop-opacity="0.5"/>
<stop offset="1" stop-color="#020617" stop-opacity="0"/>
</linearGradient>
<linearGradient id="paint1_linear_441_2511" x1="30.8821" y1="18.7647" x2="24.7056" y2="9.5" gradientUnits="userSpaceOnUse">
<stop stop-color="#020617" stop-opacity="0.5"/>
<stop offset="0.0001" stop-color="#020617" stop-opacity="0.4"/>
<stop offset="1" stop-color="#020617" stop-opacity="0"/>
</linearGradient>
<clipPath id="clip0_441_2511">
<rect width="42" height="42" rx="7" fill="white"/>
</clipPath>
</defs>
</svg>
