<svg width="229" height="31" viewBox="0 0 229 31" fill="none" xmlns="http://www.w3.org/2000/svg">
<path fill-rule="evenodd" clip-rule="evenodd" d="M6.37134 23.1575L18.2384 29.6506C20.5491 30.9149 23.5038 30.1646 24.8379 27.9747C26.172 25.7849 25.3803 22.9847 23.0696 21.7204L15.3958 17.5217L8.44862 22.1321C7.79063 22.5688 7.09204 22.9095 6.37134 23.1575Z" fill="#F0402C"/>
<path fill-rule="evenodd" clip-rule="evenodd" d="M1.93111 11.9358L16.7674 0.872597C18.8159 -0.654919 21.6394 -0.124907 23.0739 2.05641C23.4325 2.60174 23.6704 3.19865 23.7934 3.81113C23.9977 4.82795 23.8856 5.8877 23.4843 6.82562C23.1605 7.58256 22.6483 8.26014 21.9622 8.77179L7.12584 19.835C5.07737 21.3626 2.25388 20.8325 0.819396 18.6512C0.265359 17.8087 -0.000446537 16.8431 5.63076e-07 15.8872C0.000726536 14.3681 0.673831 12.8734 1.93111 11.9358Z" fill="#F0402C"/>
<path fill-rule="evenodd" clip-rule="evenodd" d="M6.37134 23.1575L18.2384 29.6506C20.5491 30.9149 23.5038 30.1646 24.8379 27.9747C26.172 25.7849 25.3803 22.9847 23.0696 21.7204L15.3958 17.5217L8.44862 22.1321C7.79063 22.5688 7.09204 22.9095 6.37134 23.1575Z" fill="url(#paint0_linear_441_2482)"/>
<path fill-rule="evenodd" clip-rule="evenodd" d="M47.7864 7.10731L35.9193 0.614183C33.6086 -0.650129 30.6539 0.100171 29.3198 2.29002C27.9857 4.47987 28.7774 7.28003 31.0881 8.54434L38.762 12.7431L45.7091 8.13266C46.3671 7.69599 47.0657 7.35523 47.7864 7.10731Z" fill="#F0402C"/>
<path fill-rule="evenodd" clip-rule="evenodd" d="M47.7864 7.10731L35.9193 0.614183C33.6086 -0.650129 30.6539 0.100171 29.3198 2.29002C27.9857 4.47987 28.7774 7.28003 31.0881 8.54434L38.762 12.7431L45.7091 8.13266C46.3671 7.69599 47.0657 7.35523 47.7864 7.10731Z" fill="url(#paint1_linear_441_2482)"/>
<path fill-rule="evenodd" clip-rule="evenodd" d="M52.2271 19.2472L37.3908 29.4594C35.3423 30.8694 32.5188 30.3802 31.0843 28.3667C30.7257 27.8633 30.4878 27.3123 30.3648 26.7469C30.1605 25.8083 30.2726 24.8301 30.6739 23.9643C30.9977 23.2656 31.5099 22.6401 32.196 22.1678L47.0324 11.9556C49.0808 10.5456 51.9043 11.0349 53.3388 13.0484C53.8928 13.8261 54.1587 14.7174 54.1582 15.5998C54.1575 17.002 53.4844 18.3818 52.2271 19.2472Z" fill="#F0402C"/>
<path d="M67.8382 22.2C67.0515 22.2 66.3649 22.0467 65.7782 21.74C65.2049 21.42 64.7249 21 64.3382 20.48C63.9515 19.9467 63.6582 19.3533 63.4582 18.7C63.2715 18.0467 63.1782 17.38 63.1782 16.7C63.1782 16.02 63.2715 15.3533 63.4582 14.7C63.6582 14.0467 63.9515 13.46 64.3382 12.94C64.7249 12.4067 65.2049 11.9867 65.7782 11.68C66.3649 11.36 67.0515 11.2 67.8382 11.2C68.5182 11.2 69.0782 11.3133 69.5182 11.54C69.9582 11.7533 70.2915 11.9867 70.5182 12.24C70.7582 12.4933 70.9049 12.6667 70.9582 12.76H71.1182V6.8H74.1582V22H71.1182V20.64H70.9582C70.9049 20.7333 70.7582 20.9067 70.5182 21.16C70.2915 21.4133 69.9582 21.6533 69.5182 21.88C69.0782 22.0933 68.5182 22.2 67.8382 22.2ZM68.7182 19.74C69.2649 19.74 69.7182 19.5933 70.0782 19.3C70.4515 18.9933 70.7249 18.6067 70.8982 18.14C71.0849 17.6733 71.1782 17.1933 71.1782 16.7C71.1782 16.2067 71.0849 15.7267 70.8982 15.26C70.7249 14.7933 70.4515 14.4133 70.0782 14.12C69.7182 13.8133 69.2649 13.66 68.7182 13.66C68.1715 13.66 67.7115 13.8133 67.3382 14.12C66.9782 14.4133 66.7049 14.7933 66.5182 15.26C66.3449 15.7267 66.2582 16.2067 66.2582 16.7C66.2582 17.1933 66.3449 17.6733 66.5182 18.14C66.7049 18.6067 66.9782 18.9933 67.3382 19.3C67.7115 19.5933 68.1715 19.74 68.7182 19.74ZM81.8404 22.2C80.9071 22.2 80.1004 22.0467 79.4204 21.74C78.7404 21.42 78.1804 21 77.7404 20.48C77.3004 19.9467 76.9671 19.3533 76.7404 18.7C76.5271 18.0467 76.4204 17.3733 76.4204 16.68C76.4204 16.0133 76.5204 15.36 76.7204 14.72C76.9337 14.0667 77.2537 13.4733 77.6804 12.94C78.1204 12.4067 78.6737 11.9867 79.3404 11.68C80.0204 11.36 80.8204 11.2 81.7404 11.2C82.7137 11.2 83.5737 11.4133 84.3204 11.84C85.0804 12.2667 85.6737 12.9 86.1004 13.74C86.5271 14.5667 86.7404 15.5733 86.7404 16.76V17.5H79.4804C79.5204 18.14 79.7404 18.6933 80.1404 19.16C80.5537 19.6267 81.1204 19.86 81.8404 19.86C82.2537 19.86 82.5871 19.8 82.8404 19.68C83.1071 19.5467 83.3137 19.4 83.4604 19.24C83.6071 19.0667 83.7071 18.9133 83.7604 18.78C83.8137 18.6467 83.8404 18.58 83.8404 18.58H86.6404C86.6404 18.58 86.6071 18.7067 86.5404 18.96C86.4871 19.2 86.3671 19.5 86.1804 19.86C85.9937 20.22 85.7204 20.58 85.3604 20.94C85.0137 21.3 84.5537 21.6 83.9804 21.84C83.4071 22.08 82.6937 22.2 81.8404 22.2ZM79.4804 15.66H83.8204C83.7804 14.9267 83.5604 14.38 83.1604 14.02C82.7604 13.66 82.2671 13.48 81.6804 13.48C81.0937 13.48 80.5937 13.6733 80.1804 14.06C79.7671 14.4333 79.5337 14.9667 79.4804 15.66ZM91.5763 22L87.6963 11.4H90.7363L93.2163 18.58L95.5963 11.4H98.6563L94.7563 22H91.5763ZM107.251 22.2C106.025 22.2 104.951 21.9867 104.031 21.56C103.125 21.12 102.365 20.54 101.751 19.82C101.138 19.0867 100.678 18.2667 100.371 17.36C100.065 16.4533 99.9113 15.5267 99.9113 14.58C99.9113 13.6467 100.065 12.7267 100.371 11.82C100.678 10.9133 101.138 10.1 101.751 9.38C102.365 8.64667 103.125 8.06667 104.031 7.64C104.951 7.21333 106.025 7 107.251 7C108.278 7 109.151 7.13333 109.871 7.4C110.605 7.65333 111.211 7.98667 111.691 8.4C112.185 8.8 112.578 9.23333 112.871 9.7C113.178 10.1533 113.405 10.5867 113.551 11C113.698 11.4 113.791 11.7333 113.831 12C113.885 12.2533 113.911 12.38 113.911 12.38H110.851C110.851 12.38 110.825 12.2933 110.771 12.12C110.731 11.9333 110.645 11.7133 110.511 11.46C110.378 11.1933 110.178 10.9333 109.911 10.68C109.658 10.4267 109.311 10.2133 108.871 10.04C108.445 9.85333 107.911 9.76 107.271 9.76C106.351 9.76 105.578 10 104.951 10.48C104.338 10.9467 103.871 11.5467 103.551 12.28C103.245 13.0133 103.091 13.78 103.091 14.58C103.091 15.38 103.245 16.1533 103.551 16.9C103.871 17.6333 104.338 18.24 104.951 18.72C105.578 19.1867 106.351 19.42 107.271 19.42C107.911 19.42 108.445 19.3333 108.871 19.16C109.311 18.9867 109.658 18.7733 109.911 18.52C110.178 18.2533 110.378 17.9933 110.511 17.74C110.645 17.4733 110.731 17.2533 110.771 17.08C110.825 16.9067 110.851 16.82 110.851 16.82H113.911C113.911 16.82 113.885 16.9533 113.831 17.22C113.791 17.4733 113.698 17.8067 113.551 18.22C113.405 18.62 113.178 19.0533 112.871 19.52C112.578 19.9733 112.185 20.4067 111.691 20.82C111.211 21.22 110.605 21.5533 109.871 21.82C109.151 22.0733 108.278 22.2 107.251 22.2ZM116.077 22V6.8H119.117V12.92H119.217C119.337 12.7067 119.51 12.4667 119.737 12.2C119.977 11.9333 120.29 11.7 120.677 11.5C121.077 11.3 121.583 11.2 122.197 11.2C123.023 11.2 123.697 11.3933 124.217 11.78C124.737 12.1533 125.117 12.64 125.357 13.24C125.597 13.8267 125.717 14.4467 125.717 15.1V22H122.677V15.62C122.677 15.1133 122.537 14.6667 122.257 14.28C121.99 13.8933 121.557 13.7 120.957 13.7C120.503 13.7 120.143 13.8067 119.877 14.02C119.61 14.2333 119.417 14.5067 119.297 14.84C119.177 15.1733 119.117 15.5267 119.117 15.9V22H116.077ZM132.448 11.2C133.128 11.2 133.688 11.3133 134.128 11.54C134.568 11.7533 134.901 11.9867 135.128 12.24C135.368 12.4933 135.514 12.6667 135.568 12.76H135.728V11.4H138.768V22H135.728V20.64H135.568C135.514 20.7333 135.368 20.9067 135.128 21.16C134.901 21.4133 134.568 21.6533 134.128 21.88C133.688 22.0933 133.128 22.2 132.448 22.2C131.661 22.2 130.974 22.0467 130.388 21.74C129.814 21.42 129.334 21 128.948 20.48C128.561 19.9467 128.268 19.3533 128.068 18.7C127.881 18.0467 127.788 17.38 127.788 16.7C127.788 16.02 127.881 15.3533 128.068 14.7C128.268 14.0467 128.561 13.46 128.948 12.94C129.334 12.4067 129.814 11.9867 130.388 11.68C130.974 11.36 131.661 11.2 132.448 11.2ZM133.328 13.66C132.781 13.66 132.321 13.8133 131.948 14.12C131.588 14.4133 131.314 14.7933 131.128 15.26C130.954 15.7267 130.868 16.2067 130.868 16.7C130.868 17.1933 130.954 17.6733 131.128 18.14C131.314 18.6067 131.588 18.9933 131.948 19.3C132.321 19.5933 132.781 19.74 133.328 19.74C133.874 19.74 134.328 19.5933 134.688 19.3C135.061 18.9933 135.334 18.6067 135.508 18.14C135.694 17.6733 135.788 17.1933 135.788 16.7C135.788 16.2067 135.694 15.7267 135.508 15.26C135.334 14.7933 135.061 14.4133 134.688 14.12C134.328 13.8133 133.874 13.66 133.328 13.66ZM141.35 22V6.8H144.39V22H141.35ZM147.112 22V6.8H150.152V22H147.112ZM157.836 22.2C156.903 22.2 156.096 22.0467 155.416 21.74C154.736 21.42 154.176 21 153.736 20.48C153.296 19.9467 152.963 19.3533 152.736 18.7C152.523 18.0467 152.416 17.3733 152.416 16.68C152.416 16.0133 152.516 15.36 152.716 14.72C152.93 14.0667 153.25 13.4733 153.676 12.94C154.116 12.4067 154.67 11.9867 155.336 11.68C156.016 11.36 156.816 11.2 157.736 11.2C158.71 11.2 159.57 11.4133 160.316 11.84C161.076 12.2667 161.67 12.9 162.096 13.74C162.523 14.5667 162.736 15.5733 162.736 16.76V17.5H155.476C155.516 18.14 155.736 18.6933 156.136 19.16C156.55 19.6267 157.116 19.86 157.836 19.86C158.25 19.86 158.583 19.8 158.836 19.68C159.103 19.5467 159.31 19.4 159.456 19.24C159.603 19.0667 159.703 18.9133 159.756 18.78C159.81 18.6467 159.836 18.58 159.836 18.58H162.636C162.636 18.58 162.603 18.7067 162.536 18.96C162.483 19.2 162.363 19.5 162.176 19.86C161.99 20.22 161.716 20.58 161.356 20.94C161.01 21.3 160.55 21.6 159.976 21.84C159.403 22.08 158.69 22.2 157.836 22.2ZM155.476 15.66H159.816C159.776 14.9267 159.556 14.38 159.156 14.02C158.756 13.66 158.263 13.48 157.676 13.48C157.09 13.48 156.59 13.6733 156.176 14.06C155.763 14.4333 155.53 14.9667 155.476 15.66ZM164.803 22V11.4H167.843V12.92H167.943C168.063 12.7067 168.236 12.4667 168.463 12.2C168.703 11.9333 169.016 11.7 169.403 11.5C169.803 11.3 170.309 11.2 170.923 11.2C171.749 11.2 172.423 11.3933 172.943 11.78C173.463 12.1533 173.843 12.64 174.083 13.24C174.323 13.8267 174.443 14.4467 174.443 15.1V22H171.403V15.62C171.403 15.1133 171.263 14.6667 170.983 14.28C170.716 13.8933 170.283 13.7 169.683 13.7C169.229 13.7 168.869 13.8067 168.603 14.02C168.336 14.2333 168.143 14.5067 168.023 14.84C167.903 15.1733 167.843 15.5267 167.843 15.9V22H164.803ZM182.079 26.24C181.092 26.24 180.279 26.12 179.639 25.88C179.012 25.64 178.512 25.3333 178.139 24.96C177.765 24.6 177.492 24.24 177.319 23.88C177.145 23.52 177.032 23.2133 176.979 22.96C176.939 22.72 176.919 22.6 176.919 22.6H179.879C179.879 22.6 179.899 22.66 179.939 22.78C179.992 22.9133 180.092 23.06 180.239 23.22C180.385 23.3933 180.599 23.54 180.879 23.66C181.172 23.7933 181.559 23.86 182.039 23.86C182.865 23.86 183.472 23.6267 183.859 23.16C184.259 22.6933 184.459 22.08 184.459 21.32V20.2H184.319C184.185 20.4133 183.985 20.6467 183.719 20.9C183.452 21.1533 183.112 21.3667 182.699 21.54C182.285 21.7133 181.785 21.8 181.199 21.8C180.412 21.8 179.725 21.6533 179.139 21.36C178.552 21.0533 178.059 20.6467 177.659 20.14C177.272 19.6333 176.979 19.0667 176.779 18.44C176.592 17.8133 176.499 17.1667 176.499 16.5C176.499 15.8467 176.592 15.2067 176.779 14.58C176.979 13.94 177.272 13.3667 177.659 12.86C178.059 12.3533 178.552 11.9533 179.139 11.66C179.725 11.3533 180.412 11.2 181.199 11.2C181.785 11.2 182.285 11.2933 182.699 11.48C183.112 11.6533 183.452 11.8667 183.719 12.12C183.999 12.36 184.199 12.5933 184.319 12.82H184.459V11.4H187.499V21.32C187.499 22.2 187.305 23.0133 186.919 23.76C186.532 24.5067 185.939 25.1067 185.139 25.56C184.339 26.0133 183.319 26.24 182.079 26.24ZM182.039 19.4C182.599 19.4 183.059 19.26 183.419 18.98C183.792 18.7 184.072 18.34 184.259 17.9C184.445 17.4467 184.539 16.98 184.539 16.5C184.539 16.0067 184.445 15.54 184.259 15.1C184.072 14.66 183.792 14.3 183.419 14.02C183.059 13.74 182.599 13.6 182.039 13.6C181.492 13.6 181.032 13.74 180.659 14.02C180.299 14.3 180.025 14.66 179.839 15.1C179.652 15.54 179.559 16.0067 179.559 16.5C179.559 16.98 179.652 17.4467 179.839 17.9C180.025 18.34 180.299 18.7 180.659 18.98C181.032 19.26 181.492 19.4 182.039 19.4ZM194.946 22.2C194.013 22.2 193.206 22.0467 192.526 21.74C191.846 21.42 191.286 21 190.846 20.48C190.406 19.9467 190.073 19.3533 189.846 18.7C189.633 18.0467 189.526 17.3733 189.526 16.68C189.526 16.0133 189.626 15.36 189.826 14.72C190.039 14.0667 190.359 13.4733 190.786 12.94C191.226 12.4067 191.779 11.9867 192.446 11.68C193.126 11.36 193.926 11.2 194.846 11.2C195.819 11.2 196.679 11.4133 197.426 11.84C198.186 12.2667 198.779 12.9 199.206 13.74C199.633 14.5667 199.846 15.5733 199.846 16.76V17.5H192.586C192.626 18.14 192.846 18.6933 193.246 19.16C193.659 19.6267 194.226 19.86 194.946 19.86C195.359 19.86 195.693 19.8 195.946 19.68C196.213 19.5467 196.419 19.4 196.566 19.24C196.713 19.0667 196.813 18.9133 196.866 18.78C196.919 18.6467 196.946 18.58 196.946 18.58H199.746C199.746 18.58 199.713 18.7067 199.646 18.96C199.593 19.2 199.473 19.5 199.286 19.86C199.099 20.22 198.826 20.58 198.466 20.94C198.119 21.3 197.659 21.6 197.086 21.84C196.513 22.08 195.799 22.2 194.946 22.2ZM192.586 15.66H196.926C196.886 14.9267 196.666 14.38 196.266 14.02C195.866 13.66 195.373 13.48 194.786 13.48C194.199 13.48 193.699 13.6733 193.286 14.06C192.873 14.4333 192.639 14.9667 192.586 15.66ZM206.489 22.2C205.609 22.2 204.882 22.08 204.309 21.84C203.736 21.6 203.276 21.3067 202.929 20.96C202.596 20.6 202.342 20.2467 202.169 19.9C202.009 19.54 201.902 19.24 201.849 19C201.809 18.76 201.789 18.64 201.789 18.64H204.609C204.609 18.64 204.629 18.7067 204.669 18.84C204.709 18.9733 204.796 19.1267 204.929 19.3C205.076 19.4733 205.282 19.6267 205.549 19.76C205.816 19.8933 206.176 19.96 206.629 19.96C207.189 19.96 207.569 19.8467 207.769 19.62C207.982 19.3933 208.089 19.1667 208.089 18.94C208.089 18.46 207.696 18.14 206.909 17.98L205.469 17.7C204.856 17.58 204.276 17.4067 203.729 17.18C203.196 16.94 202.762 16.6133 202.429 16.2C202.109 15.7733 201.949 15.2267 201.949 14.56C201.949 13.92 202.116 13.3467 202.449 12.84C202.782 12.3333 203.256 11.9333 203.869 11.64C204.496 11.3467 205.242 11.2 206.109 11.2C206.922 11.2 207.596 11.3133 208.129 11.54C208.676 11.7533 209.109 12.0267 209.429 12.36C209.749 12.68 209.989 13.0067 210.149 13.34C210.309 13.66 210.409 13.9333 210.449 14.16C210.502 14.3733 210.529 14.48 210.529 14.48H207.809C207.809 14.48 207.769 14.3933 207.689 14.22C207.609 14.0333 207.442 13.8533 207.189 13.68C206.949 13.4933 206.576 13.4 206.069 13.4C205.549 13.4 205.189 13.5067 204.989 13.72C204.789 13.92 204.689 14.1333 204.689 14.36C204.689 14.6267 204.802 14.8267 205.029 14.96C205.269 15.0933 205.576 15.2 205.949 15.28L207.329 15.56C208.342 15.76 209.176 16.1133 209.829 16.62C210.482 17.1133 210.809 17.8333 210.809 18.78C210.809 19.42 210.642 20 210.309 20.52C209.976 21.04 209.489 21.4533 208.849 21.76C208.209 22.0533 207.422 22.2 206.489 22.2Z" fill="#E2E8F0"/>
<defs>
<linearGradient id="paint0_linear_441_2482" x1="11.9464" y1="19.9111" x2="23.0966" y2="29.4684" gradientUnits="userSpaceOnUse">
<stop stop-color="#020617" stop-opacity="0.5"/>
<stop offset="1" stop-color="#020617" stop-opacity="0"/>
</linearGradient>
<linearGradient id="paint1_linear_441_2482" x1="39.8219" y1="12.7431" x2="31.8575" y2="0.796462" gradientUnits="userSpaceOnUse">
<stop stop-color="#020617" stop-opacity="0.5"/>
<stop offset="0.0001" stop-color="#020617" stop-opacity="0.4"/>
<stop offset="1" stop-color="#020617" stop-opacity="0"/>
</linearGradient>
</defs>
</svg>
